<?xml version="1.0" encoding="UTF-8"?>
<svg id="Layer_2" xmlns="http://www.w3.org/2000/svg" viewBox="0 0 869.41 952.62">
  <defs>
    <style>
      .cls-1 {
        fill: #fff;
      }
    </style>
  </defs>
  <g id="Layer_1-2" data-name="Layer_1">
    <path class="cls-1" d="M847.02,713.43c-35.75,64.93-100.68,96.18-176.68,53.63-91.69-53.63-69.31-149.81-210.24-248.3,13.38,172.19,109.56,201.25,109.56,306.43,0,87.19-62.62,127.44-134.24,127.44s-134.24-40.25-134.24-127.44c0-105.06,96.18-134.24,109.56-306.43-143.12,98.38-118.56,194.56-210.24,248.3-76,42.56-143.12,9-178.88-51.44-35.75-64.81-31.25-136.43,44.75-181.18,91.69-51.44,163.31,15.68,319.81-58.13-156.5-73.81-228.12-6.69-319.81-58.13C-9.64,373.44-14.14,301.82,21.61,237c35.75-60.43,102.87-93.99,178.88-51.44,91.69,53.63,67.12,149.81,210.24,248.3-13.38-172.19-109.56-201.25-109.56-306.43C301.17,40.25,361.6,0,435.41,0s134.24,40.25,134.24,127.44c0,105.06-96.18,134.24-109.56,306.43,140.93-98.38,118.56-194.56,210.24-248.3,76-42.56,140.93-11.19,176.68,53.63,35.75,60.43,33.56,134.24-42.56,178.88-91.69,51.44-165.5-15.68-319.81,58.13,154.31,73.81,228.12,6.69,319.81,58.13,76,44.75,78.31,118.56,42.56,178.88v.23Z"/>
  </g>
</svg>