<?xml version="1.0" encoding="UTF-8"?>
<svg id="Layer_2" xmlns="http://www.w3.org/2000/svg" viewBox="0 0 770.17 395.11">
  <defs>
    <style>
      .cls-1 {
        fill: #fff;
      }
    </style>
  </defs>
  <g id="Layer_1-2" data-name="Layer_1">
    <g>
      <g>
        <path class="cls-1" d="M268.36,100.49c-9.64,0-19.5,4.36-25.01,20.42l-28.91,85.11h-41.07l-18.35-61.02-20.65,61.02h-40.84l-29.37-85.11c-5.51-16.06-15.37-20.42-25.01-20.42v-9.18h78.92v9.18c-14.68,0-18.35,4.36-12.85,20.42l22.02,64.24,31.43-93.83h14.45l33.72,94.06,22.02-64.47c5.51-16.06,1.84-20.42-12.85-20.42v-9.18h52.31v9.18Z"/>
        <path class="cls-1" d="M328.02,89.02c47.03,0,66.53,28.68,66.53,59.65s-19.5,59.65-66.53,59.65-66.53-28.68-66.53-59.65,19.5-59.65,66.53-59.65ZM334.44,194.1c18.58-2.29,24.55-18.81,20.88-48.87-3.67-29.82-13.54-44.51-33.72-41.98-18.58,2.29-24.55,18.81-20.88,48.87,3.67,29.82,13.54,44.51,33.72,41.98Z"/>
        <path class="cls-1" d="M525.55,146.61l-39-4.59c13.76-30.51,8.72-39.23-1.15-39.23-18.35,0-33.5,30.51-33.5,61.94v10.09c0,16.98,4.13,22.02,11.47,22.02v9.18h-61.94v-9.18c7.34,0,11.47-5.05,11.47-22.02v-52.31c0-16.98-4.13-22.02-11.47-22.02v-9.18h16.06c24.32,0,34.41,1.38,34.41,24.55v6.65h2.29c4.59-12.85,20.42-33.49,46.8-33.49s33.72,18.58,24.55,57.58Z"/>
        <path class="cls-1" d="M690.5,196.85v9.18c-37.62,0-62.4-2.75-69.74-37.62-3.67-17.21-8.26-22.02-23.86-22.02l-12.39,8.49v19.96c0,16.98,4.13,22.02,11.47,22.02v9.18h-61.94v-9.18c7.34,0,11.47-5.05,11.47-22.02v-102.78c0-16.98-4.13-22.02-11.47-22.02v-9.18h16.06c24.32,0,34.41,1.38,34.41,24.55v72.72l42.9-29.14c13.99-9.64,13.31-8.49-8.72-8.49v-9.18h69.97v9.18c-7.34,0-23.17-1.15-37.17,8.49l-31.66,21.79v1.84c27.76,0,33.95,11.24,39.46,29.37,9.41,30.97,19.04,34.87,31.2,34.87Z"/>
        <path class="cls-1" d="M116.95,256.54c4.13-9.64.23-12.85-3.44-12.85-2.75,0-5.28.92-6.88,2.29,4.82,6.42,7.34,14.22,7.34,22.94,0,24.09-19.5,41.29-55.06,41.29-8.03,0-15.14-.92-21.34-2.52-4.36,2.52-6.19,4.59-6.19,7.34,0,5.74,6.88,6.19,30.05,4.36,32.81-2.52,57.58,7.34,57.58,33.27,0,28.91-29.14,40.15-60.8,40.15S-7.62,382.72,1.56,346.24l39,4.59c-9.18,22.02,0,28.22,17.44,28.22,16.06,0,22.02-8.49,22.02-21.34,0-17.89-12.16-19.96-32.58-20.19-23.86-.23-41.29-.23-41.29-15.6,0-8.26,7.11-16.52,18.12-19.27-13.31-7.11-20.42-19.27-20.42-33.72,0-24.09,19.5-41.29,55.06-41.29,16.75,0,30.05,3.9,39.23,10.32,2.75-5.28,10.32-10.32,19.96-10.32,16.98,0,21.34,10.78,19.5,24.32l-20.65,4.59ZM74.97,267.09c-5.05-20.19-11.24-27.76-23.4-24.78-10.78,2.75-12.39,12.62-8.72,28.22,4.82,20.42,11.24,28.22,23.4,25.01,10.78-2.98,12.62-12.62,8.72-28.45Z"/>
        <path class="cls-1" d="M269.06,285.21l-39-4.59c13.76-30.51,8.72-39.23-1.15-39.23-18.35,0-33.5,30.51-33.5,61.94v10.09c0,16.98,4.13,22.02,11.47,22.02v9.18h-61.94v-9.18c7.34,0,11.47-5.05,11.47-22.02v-52.31c0-16.98-4.13-22.02-11.47-22.02v-9.18h16.06c24.32,0,34.41,1.38,34.41,24.55v6.65h2.29c4.59-12.85,20.42-33.49,46.8-33.49s33.72,18.58,24.55,57.58Z"/>
        <path class="cls-1" d="M348.66,227.63c47.03,0,66.53,28.68,66.53,59.65s-19.5,59.65-66.53,59.65-66.53-28.68-66.53-59.65,19.5-59.65,66.53-59.65ZM355.09,332.7c18.58-2.29,24.55-18.81,20.88-48.87-3.67-29.82-13.54-44.51-33.72-41.98-18.58,2.29-24.55,18.81-20.88,48.87,3.67,29.82,13.54,44.51,33.72,41.98Z"/>
        <path class="cls-1" d="M555.37,261.13v52.31c0,16.98,4.13,22.02,11.47,22.02v9.18h-16.06c-24.32,0-34.41-1.38-34.41-24.55v-6.65h-2.29c-5.05,19.73-18.12,33.49-42.21,33.49-22.48,0-40.61-13.99-40.61-43.82v-41.98c0-16.98-4.13-22.02-11.47-22.02v-9.18h61.94v9.18c-7.34,0-11.47,5.05-11.47,22.02v53.45c0,11.7,4.59,18.58,14.68,18.58,20.88,0,31.43-30.51,31.43-61.94v-10.09c0-16.98-4.13-22.02-11.47-22.02v-9.18h61.94v9.18c-7.34,0-11.47,5.05-11.47,22.02Z"/>
        <path class="cls-1" d="M678.11,346.93c-18.58,0-35.1-7.34-44.74-22.02h-2.29v39c0,16.98,4.13,22.02,11.47,22.02v9.18h-61.94v-9.18c7.34,0,11.47-5.05,11.47-22.02v-102.78c0-16.98-4.13-22.02-11.47-22.02v-9.18h16.06c24.32,0,34.41,1.15,34.41,19.5v.23h2.29c9.64-14.68,26.15-22.02,44.74-22.02,28.45,0,53.91,19.73,53.91,59.65s-25.47,59.65-53.91,59.65ZM663.2,241.4c-19.27,0-29.82,16.29-29.82,45.88s10.55,45.88,29.82,45.88,27.53-16.29,27.53-45.88-8.26-45.88-27.53-45.88Z"/>
      </g>
      <path class="cls-1" d="M768.23,61.86c-3.1,5.63-8.73,8.34-15.32,4.65-7.95-4.65-6.01-12.99-18.23-21.53,1.16,14.93,9.5,17.45,9.5,26.57,0,7.56-5.43,11.05-11.64,11.05s-11.64-3.49-11.64-11.05c0-9.11,8.34-11.64,9.5-26.57-12.41,8.53-10.28,16.87-18.23,21.53-6.59,3.69-12.41.78-15.51-4.46-3.1-5.62-2.71-11.83,3.88-15.71,7.95-4.46,14.16,1.36,27.73-5.04-13.57-6.4-19.78-.58-27.73-5.04-6.59-3.88-6.98-10.09-3.88-15.71,3.1-5.24,8.92-8.15,15.51-4.46,7.95,4.65,5.82,12.99,18.23,21.53-1.16-14.93-9.5-17.45-9.5-26.57,0-7.56,5.24-11.05,11.64-11.05s11.64,3.49,11.64,11.05c0,9.11-8.34,11.64-9.5,26.57,12.22-8.53,10.28-16.87,18.23-21.53,6.59-3.69,12.22-.97,15.32,4.65,3.1,5.24,2.91,11.64-3.69,15.51-7.95,4.46-14.35-1.36-27.73,5.04,13.38,6.4,19.78.58,27.73,5.04,6.59,3.88,6.79,10.28,3.69,15.51Z"/>
    </g>
  </g>
</svg>